# xmcd
#
# Track frame offsets:
#	150
#	17166
#	31846
#	46080
#	60149
#	75378
#	87536
#	103932
#	119574
#	134499
#
# Disc length: 1977 seconds
#
# Revision: 0
# Processed by: cddbd v1.5.2PL0 Copyright (c) Steve Scherf et al.
# Submitted via: EasyCDDAExtractor 16.0.6.1
#
DISCID=7907b70a
DTITLE=Συλλογικός δίσκος - Τα δημοτικά του μπουζουκιού
DYEAR=2006
DGENRE=Παραδοσιακή
TTITLE0=Πολυμέρης Φώτης - Στέλλα μωρ' Στέλλα [διασκ. Β. Τσιτσάνη]
TTITLE1=Περδικόπουλος Δημήτρης - Οι κάμποι πρασινίσανε [διασκ. Δ. Περδικόπουλο
TTITLE1=υ]
TTITLE2=Κυριακή Μαρίνα - Κόρη μαλαματένια [διασκ. Δ. Περδικόπουλου]
TTITLE3=Περπινιάδης Στελλάκης-Γεωργακοπούλου Ι. - Η Καλυβιώτισσα [Στ. Περπινιά
TTITLE3=δη]
TTITLE4=Γεωργακοπούλου Ιωάννα - Η Παναγιώτα κίνησε [Γ. Μητσάκη]
TTITLE5=Παγιουμτζής Στράτος - Φεύγω απ' το χωριό [Μ. Γαβριήλ-Στρ. Παγιουμτζή]
TTITLE6=Νίνου Μαρίκα - Έρχεται τ' αγόρι μου [Αθ. Μπουρλιάσκου]
TTITLE7=Μπερνιδάκης Γιάννης - Το μερακλίδικο πουλί [διασκ. Στ. Φουσταλιέρη]
TTITLE8=Σκορδαλός Θανάσης - Πετροκεφαλιανός συρτός [διασκ. Αθ. Σκορδαλού]
TTITLE9=Άνευ ερμηνευτού - Κότσαρι [παραδοσιακό]
EXTD=
EXTT0=
EXTT1=
EXTT2=
EXTT3=
EXTT4=
EXTT5=
EXTT6=
EXTT7=
EXTT8=
EXTT9=
PLAYORDER=
